PathFileType	4	(X/Y/Z)	Run_200 02
DataRate	CameraRate	NumFrames	NumMarkers	Units	OrigDataRate	OrigDataStartFrame	OrigNumFrames
100	100	4	42	mm	100	18	128
Frame#	Time	LPSI			RPSI			RTH1			RTH2			RTH3			LTH1			LTH2			LTH3			RTB1			RTB2			RTB3			LTB1			LTB2			LTB3			RCAL			RTOE			RMT5			LCAL			LTOE			LMT5			LACR			RACR			CLAV			C7			RUA1			RUA2			RUA3			RLEL			RMEL			LUA1			LUA2			LUA3			LLEL			LMEL			RFAsuperior			RFAradius			RFAulna			LFAsuperior			LFAradius			LFAulna			RASI			LASI		
		X1	Y1	Z1	X2	Y2	Z2	X3	Y3	Z3	X4	Y4	Z4	X5	Y5	Z5	X6	Y6	Z6	X7	Y7	Z7	X8	Y8	Z8	X9	Y9	Z9	X10	Y10	Z10	X11	Y11	Z11	X12	Y12	Z12	X13	Y13	Z13	X14	Y14	Z14	X15	Y15	Z15	X16	Y16	Z16	X17	Y17	Z17	X18	Y18	Z18	X19	Y19	Z19	X20	Y20	Z20	X21	Y21	Z21	X22	Y22	Z22	X23	Y23	Z23	X24	Y24	Z24	X25	Y25	Z25	X26	Y26	Z26	X27	Y27	Z27	X28	Y28	Z28	X29	Y29	Z29	X30	Y30	Z30	X31	Y31	Z31	X32	Y32	Z32	X33	Y33	Z33	X34	Y34	Z34	X35	Y35	Z35	X36	Y36	Z36	X37	Y37	Z37	X38	Y38	Z38	X39	Y39	Z39	X40	Y40	Z40	X41	Y41	Z41	X42	Y42	Z42	

18	  0.180000	598.649607	1070.316230	-521.434264	589.629188	1071.439422	-436.521785	718.291762	873.582382	-280.320325	800.216271	748.289191	-291.606893	748.600265	631.449123	-315.176143	731.137937	876.648130	-654.507647	787.318091	758.354389	-633.290015	698.969520	627.199835	-641.767869	813.936094	387.996131	-381.316234	745.464296	296.467980	-338.313194	750.603782	198.414593	-403.124388	637.187816	416.515902	-591.746223	540.496360	432.593499	-655.497265	450.246298	331.315997	-589.948441	594.558016	 86.342462	-438.824949	831.005168	 68.844065	-401.118206	783.580868	 50.627898	-314.826458	275.486997	381.635785	-562.682266	338.782471	160.247650	-591.305577	288.731222	167.920974	-667.868949	759.518372	1524.067265	-629.651708	680.400314	1511.418776	-298.402742	798.246025	1478.389548	-420.903605	668.085599	1551.519022	-487.213558	593.774986	1414.482193	-226.699082	519.865818	1350.913596	-269.498262	534.079068	1314.830656	-201.579248	501.267995	1228.169202	-175.216580	482.565954	1205.349010	-254.587975	734.498341	1428.743914	-733.072799	667.569732	1351.496393	-745.176909	727.365747	1323.944816	-792.730547	737.612487	1242.325062	-831.273914	669.600582	1207.616785	-800.653245	565.651238	1176.570031	-170.487169	766.921942	1157.266530	-223.919245	732.184558	1094.831915	-217.386131	815.175436	1187.283413	-747.141190	872.991399	1196.269967	-599.684663	863.176839	1131.708444	-623.661337	768.964073	1003.786336	-332.803576	788.314449	995.054825	-585.974034	
19	  0.190000	595.155332	1066.809070	-519.992163	588.412838	1067.660764	-435.274393	714.783748	868.796661	-279.661735	797.159988	743.503067	-291.640849	744.252449	626.618198	-314.720411	730.612176	873.070809	-653.972242	792.488447	756.340438	-632.925579	709.001208	622.993338	-641.619800	803.899855	382.224675	-380.640420	731.794769	293.310980	-338.565078	733.792064	195.398955	-404.141463	650.323686	413.544818	-590.277944	554.608699	430.796864	-655.670138	463.072090	330.702803	-589.670768	574.490209	 85.870383	-439.637821	810.707813	 68.393557	-401.312280	763.245872	 50.669807	-315.118807	287.235158	381.865622	-562.686179	352.682834	161.436496	-593.058548	302.974022	169.279288	-669.934793	758.703860	1519.484107	-627.710550	682.130284	1504.752965	-295.519389	798.988294	1472.475706	-419.467702	669.072827	1547.895389	-484.383360	599.214080	1404.252811	-223.653038	525.120652	1338.831478	-264.804995	541.469358	1302.869309	-198.559289	511.537497	1214.942687	-172.280025	490.895266	1192.233833	-250.819272	730.189468	1425.102341	-731.694233	661.836898	1348.572496	-742.183416	720.066276	1320.875053	-792.111447	728.988612	1239.490010	-830.593465	661.002225	1206.314102	-799.261220	577.223611	1165.077262	-168.931927	777.376842	1148.275510	-225.197687	743.231897	1085.200866	-218.492125	806.295704	1180.516222	-749.215687	867.055882	1181.215657	-603.433081	854.455693	1118.231844	-629.249254	768.366034	999.119285	-332.728382	787.367692	990.230335	-587.900768	
20	  0.200000	592.238753	1063.809735	-519.004978	587.167477	1064.685472	-434.316500	711.491573	864.831650	-279.186621	793.298282	739.221848	-291.200944	739.011568	622.435229	-314.087743	729.241866	869.780603	-653.458077	797.489803	755.114696	-632.467965	719.117645	619.616512	-641.712008	793.320253	377.196724	-380.204954	718.187035	290.532046	-338.594261	716.913996	192.898204	-404.690712	663.778248	411.317357	-588.579976	568.877056	429.110922	-655.682185	476.598946	329.770708	-589.433261	554.601776	 86.133582	-440.048098	790.567538	 68.000125	-401.354783	742.997024	 50.637149	-315.301222	299.536738	380.990586	-562.844241	368.141975	161.635810	-594.397680	318.780972	169.694175	-671.602675	758.109213	1515.634489	-625.942368	684.097278	1498.993355	-292.855275	799.784475	1467.294418	-418.181515	669.953330	1544.688180	-481.704949	604.321482	1395.181497	-221.052199	530.585263	1327.825342	-260.842938	549.020273	1291.887688	-195.860629	521.973506	1202.823014	-169.688782	499.915186	1180.260329	-247.633316	726.038409	1422.462910	-730.477774	656.248694	1346.778407	-738.664179	712.187779	1319.151041	-791.607415	719.633023	1237.945325	-830.423577	651.670767	1206.301192	-798.380584	588.866903	1154.408805	-167.788282	788.136720	1141.151135	-227.123194	754.835017	1077.504142	-220.906703	796.543798	1174.445314	-751.896616	859.943872	1167.931498	-607.581679	844.507986	1106.401936	-634.940333	767.539735	994.566931	-332.559589	786.056630	985.673549	-589.403942	
21	  0.210000	590.196854	1061.629387	-518.533967	585.630286	1062.935345	-433.825415	708.304018	862.127380	-278.881461	788.326328	735.708243	-290.154593	732.553337	619.317661	-313.204990	726.937237	867.140380	-653.027624	802.129583	755.235281	-631.938309	729.217791	617.684650	-642.031841	781.893375	373.303544	-379.935997	704.430090	288.484489	-338.285635	699.897640	191.275565	-404.610706	677.678009	410.252866	-586.669142	583.362228	427.632482	-655.514988	491.156748	328.402938	-589.223871	535.003045	 87.467503	-440.000500	770.615739	 67.681293	-401.195118	722.812913	 50.557692	-315.260424	312.647105	378.381081	-563.219702	385.852356	160.396552	-595.165550	336.841040	168.707877	-672.710553	757.737076	1513.007898	-624.501033	686.339376	1494.678039	-290.574361	800.644613	1463.307001	-417.166214	670.584528	1542.249517	-479.366148	609.014331	1387.955054	-219.098753	536.253454	1318.593642	-257.768603	556.859829	1282.575362	-193.631866	532.679087	1192.473484	-167.635974	509.740104	1170.207443	-245.289159	722.016303	1421.438287	-729.532895	650.734703	1346.951433	-734.847813	703.634686	1319.502461	-791.295505	709.205543	1238.389914	-830.988094	641.266980	1208.276453	-798.235255	600.616746	1145.181424	-167.367671	799.263378	1137.072611	-230.000077	767.171691	1072.813147	-225.120901	785.419969	1169.749272	-755.368323	851.274262	1157.654145	-612.350900	832.871269	1097.436736	-640.672977	766.316372	990.592488	-332.333187	784.242109	981.953679	-590.287131	
